{"asset":{"generator":"glTF-Transform v4.2.1","version":"2.0","extras":{"author":"Nazar Okruzhko (Назар Окружко) (https://sketchfab.com/Deduska_1947)","license":"CC-BY-4.0 (http://creativecommons.org/licenses/by/4.0/)","source":"https://sketchfab.com/3d-models/snap-dragon-pvz-garden-warfare-32e659acbc50499ca26a4f8b365faef7","title":"Snap Dragon - PVZ Garden Warfare"}},"accessors":[{"type":"VEC3","componentType":5126,"count":324,"max":[0.2374267578125,1.6748046875,0.38037097454071045],"min":[-0.2374267578125,1.4599609375,0.16564930975437164],"bufferView":0,"byteOffset":0},{"type":"VEC3","componentType":5126,"count":324,"bufferView":0,"byteOffset":12},{"type":"VEC2","componentType":5126,"count":324,"bufferView":0,"byteOffset":24},{"type":"VEC4","componentType":5123,"count":324,"bufferView":0,"byteOffset":32},{"type":"VEC4","componentType":5126,"count":324,"bufferView":0,"byteOffset":40},{"type":"SCALAR","componentType":5125,"count":1728,"bufferView":1,"byteOffset":0},{"type":"SCALAR","componentType":5125,"count":1200,"bufferView":1,"byteOffset":6912},{"type":"SCALAR","componentType":5125,"count":26466,"bufferView":1,"byteOffset":11712},{"type":"VEC3","componentType":5126,"count":244,"max":[0.442138671875,0.6044922471046448,0.4509277045726776],"min":[-0.4453125,3.7799463115106846e-8,-0.4362793564796448],"bufferView":2,"byteOffset":0},{"type":"VEC3","componentType":5126,"count":244,"bufferView":2,"byteOffset":12},{"type":"VEC4","componentType":5126,"count":244,"bufferView":2,"byteOffset":24},{"type":"VEC2","componentType":5126,"count":244,"bufferView":2,"byteOffset":40},{"type":"VEC4","componentType":5123,"count":244,"bufferView":2,"byteOffset":48},{"type":"VEC4","componentType":5126,"count":244,"bufferView":2,"byteOffset":56},{"type":"VEC3","componentType":5126,"count":5412,"max":[0.5244140625,2.03125,0.6191405057907104],"min":[-0.52978515625,0.4431152939796448,-0.5791016221046448],"bufferView":3,"byteOffset":0},{"type":"VEC3","componentType":5126,"count":5412,"bufferView":3,"byteOffset":12},{"type":"VEC4","componentType":5126,"count":5412,"bufferView":3,"byteOffset":24},{"type":"VEC2","componentType":5126,"count":5412,"bufferView":3,"byteOffset":40},{"type":"VEC4","componentType":5123,"count":5412,"bufferView":3,"byteOffset":48},{"type":"VEC4","componentType":5126,"count":5412,"bufferView":3,"byteOffset":56},{"type":"MAT4","componentType":5126,"count":96,"bufferView":4,"byteOffset":0}],"bufferViews":[{"buffer":0,"byteOffset":0,"byteLength":18144,"byteStride":56,"target":34962},{"buffer":0,"byteOffset":18144,"byteLength":117576,"target":34963},{"buffer":0,"byteOffset":135720,"byteLength":17568,"byteStride":72,"target":34962},{"buffer":0,"byteOffset":153288,"byteLength":389664,"byteStride":72,"target":34962},{"buffer":0,"byteOffset":542952,"byteLength":6144}],"samplers":[{"magFilter":9729,"minFilter":9987,"wrapS":10497,"wrapT":10497}],"textures":[{"source":0,"sampler":0},{"source":1,"sampler":0},{"source":2,"sampler":0},{"source":3,"sampler":0},{"source":4,"sampler":0}],"images":[{"mimeType":"image/png","uri":"textures/CHAR_SNAP_DRAGON_EYE_diffuse.png"},{"mimeType":"image/png","uri":"textures/material_diffuse.png"},{"mimeType":"image/png","uri":"textures/material_normal.png"},{"mimeType":"image/png","uri":"textures/CHAR_SNAP_GRAGON_diffuse.png"},{"mimeType":"image/png","uri":"textures/CHAR_SNAP_GRAGON_normal.png"}],"buffers":[{"uri":"scene.bin","byteLength":549096}],"materials":[{"name":"CHAR_SNAP_DRAGON_EYE","doubleSided":true,"pbrMetallicRoughness":{"roughnessFactor":0.8211145618000169,"metallicFactor":0,"baseColorTexture":{"index":0}},"extensions":{"KHR_materials_ior":{"ior":1000},"KHR_materials_specular":{"specularColorFactor":[0,0,0]}}},{"name":"material","doubleSided":true,"pbrMetallicRoughness":{"roughnessFactor":0.8211145618000169,"metallicFactor":0,"baseColorTexture":{"index":1}},"normalTexture":{"index":2},"extensions":{"KHR_materials_ior":{"ior":1000},"KHR_materials_specular":{"specularColorFactor":[0,0,0]}}},{"name":"CHAR_SNAP_GRAGON","doubleSided":true,"pbrMetallicRoughness":{"roughnessFactor":0.8211145618000169,"metallicFactor":0,"baseColorTexture":{"index":3}},"normalTexture":{"index":4},"extensions":{"KHR_materials_ior":{"ior":1000},"KHR_materials_specular":{"specularColorFactor":[0,0,0]}}}],"meshes":[{"name":"blinn13:lod0_CHAR_SNAP_DRAGON_EYE_0","primitives":[{"attributes":{"JOINTS_0":3,"NORMAL":1,"POSITION":0,"TEXCOORD_0":2,"WEIGHTS_0":4},"mode":4,"material":0,"indices":5}]},{"name":"blinn7:lod0_pot_0","primitives":[{"attributes":{"JOINTS_0":12,"NORMAL":9,"POSITION":8,"TANGENT":10,"TEXCOORD_0":11,"TEXCOORD_1":11,"WEIGHTS_0":13},"mode":4,"material":1,"indices":6}]},{"name":"blinn16:lod0_CHAR_SNAP_GRAGON_0","primitives":[{"attributes":{"JOINTS_0":18,"NORMAL":15,"POSITION":14,"TANGENT":16,"TEXCOORD_0":17,"TEXCOORD_1":17,"WEIGHTS_0":19},"mode":4,"material":2,"indices":7}]}],"nodes":[{"name":"Sketchfab_model","rotation":[-0.7071067811865475,0,0,0.7071067811865476],"children":[1]},{"name":"42520d03b01a4e989abab1e96c90035a.fbx","rotation":[0.7071067811865475,0,0,0.7071067811865476],"scale":[0.009999999776482582,0.009999999776482582,0.009999999776482582],"children":[2]},{"name":"RootNode","children":[3]},{"name":"Reference","scale":[100,100,100],"children":[4]},{"name":"Object_4","children":[5,102,104,106,101,103,105]},{"name":"_rootJoint","children":[6]},{"name":"AITrajectory_01","children":[7,10,13,16]},{"name":"Trajectory_02","rotation":[-2.789044664840086e-31,-0.7071067690849304,-2.789044429741216e-31,0.7071068286895752],"children":[8]},{"name":"TrajectoryEnd_03","translation":[0.20000000298023224,-4.470348358154297e-8,3.308722450212111e-24],"children":[9]},{"name":"TrajectoryEnd_end_059","translation":[-2.7755575615628914e-17,0.20000000298023224,0]},{"name":"CameraBase_04","translation":[4.956174004050939e-16,2.294707775115967,-2.6469779601696886e-23],"children":[11]},{"name":"CameraJoint_05","translation":[3.755357629343383e-17,4.440892098500626e-16,0.07717528939247131],"children":[12]},{"name":"CameraJoint_end_060","translation":[0,0.07717537879943848,0]},{"name":"Connect_06","rotation":[-2.789044664840086e-31,-0.7071067690849304,-2.789044429741216e-31,0.7071068286895752],"children":[14]},{"name":"ConnectEnd_07","translation":[0.10000000149011612,7.450580596923828e-9,1.6543612251060553e-24],"children":[15]},{"name":"ConnectEnd_end_061","translation":[0,0.10000000149011612,0]},{"name":"Hips_08","translation":[-0.00023127761960495263,0.7572546005249023,-0.005475602578371763],"rotation":[0.17986753582954407,0.6838477253913879,0.17986753582954407,0.6838476657867432],"children":[17,85,87,90,93,96]},{"name":"Hips_GLS_09","children":[18]},{"name":"Hips_add_010","children":[19]},{"name":"Spine_011","translation":[0.14000003039836884,-3.725929786924098e-8,7.939086721364674e-9],"rotation":[2.8625951609129174e-10,-6.487722803427687e-9,-0.005702825728803873,0.9999837279319763],"children":[20]},{"name":"Spine1_012","translation":[0.14000003039836884,-2.235809226647234e-8,6.107358174745059e-9],"rotation":[-2.210281735415265e-9,-1.428729690111652e-9,0.05227993428707123,0.9986324906349182],"children":[21]},{"name":"Spine2_013","translation":[0.14000007510185242,4.469675474183532e-8,5.719279272398126e-9],"rotation":[-2.5512775891911588e-8,1.067014654410059e-8,0.4811987578868866,0.8766116499900818],"children":[22]},{"name":"Spine3_014","translation":[0.13999997079372406,2.234538420964327e-8,9.108614307251628e-9],"rotation":[-1.9940653572803058e-8,7.06154162921635e-11,0.305531769990921,0.9521819949150085],"children":[23]},{"name":"Spine4_015","translation":[0.1400001496076584,-1.4901449674198375e-7,9.177460569276263e-9],"children":[24]},{"name":"Neck_016","translation":[0.08890101313591003,0.011744827032089233,4.700175360028425e-9],"children":[25]},{"name":"Face_017","translation":[0.2818734645843506,0.04573041573166847,0.00023129244800657034],"rotation":[0.6353282332420349,0.3104161024093628,0.6353279948234558,-0.31041622161865234],"children":[26,44,49,51,53,55,57,59,61,68,75,77,79,81,83]},{"name":"LowJaw_018","translation":[-6.857325818288018e-9,-0.1591748148202896,0.056971341371536255],"children":[27,29,31,33,35,37,39,41]},{"name":"RightMouth01_019","translation":[-0.24060991406440735,0.10137820243835449,0.3240337073802948],"rotation":[-1.2758175422968986e-15,0.2588191032409668,1.0139464011040358e-15,0.9659258127212524],"children":[28]},{"name":"RightMouth01_end_062","translation":[0,0.3824300765991211,0]},{"name":"RightMouth02_020","translation":[-0.13930994272232056,0.08368149399757385,0.45154136419296265],"rotation":[0.2921594977378845,0.3481821119785309,-0.039572134613990784,0.8898573517799377],"children":[30]},{"name":"RightMouth02_end_063","translation":[2.7755575615628914e-17,0.3824301064014435,0]},{"name":"MidMouth_021","translation":[5.125997404320515e-8,0.005552731920033693,0.5036959052085876],"children":[32]},{"name":"MidMouth_end_064","translation":[1.0587911840678754e-22,0.3824300765991211,-1.1102230246251565e-16]},{"name":"LeftMouth02_022","translation":[0.13930699229240417,0.0836816057562828,0.4515414237976074],"rotation":[0.2921596169471741,-0.3481820523738861,0.03957214206457138,0.8898573517799377],"children":[34]},{"name":"LeftMouth02_end_065","translation":[-2.7755575615628914e-17,0.3824301064014435,-1.1102230246251565e-16]},{"name":"LeftMouth01_023","translation":[0.24060963094234467,0.10137838870286942,0.3240337669849396],"rotation":[5.632023710247513e-16,-0.2588191032409668,-5.422624883708515e-15,0.9659258127212524],"children":[36]},{"name":"LeftMouth01_end_066","translation":[0,0.3824300765991211,0]},{"name":"LeftMouthLow_corner_024","translation":[0.2742082178592682,0.08262595534324646,0.18729719519615173],"rotation":[-3.0346638813367978e-15,-0.13052621483802795,2.7795331107008294e-15,0.9914448857307434],"children":[38]},{"name":"LeftMouthLow_corner_end_067","translation":[0,0.38243019580841064,0]},{"name":"RightMouthLow_corner_025","translation":[-0.2742099165916443,0.08262574672698975,0.18729718029499054],"rotation":[-2.1388212957716788e-15,0.13052621483802795,5.399267526671504e-16,0.9914448857307434],"children":[40]},{"name":"RightMouthLow_corner_end_068","translation":[0,0.38243019580841064,0]},{"name":"Tongue_026","translation":[-2.6645352591003757e-15,-0.010517129674553871,0.07856164127588272],"rotation":[-0.20390263199806213,-6.585463583313859e-16,1.950917412576916e-15,0.9789912700653076],"children":[42]},{"name":"Tongue01_00","translation":[-6.661338147750939e-16,-0.04008398950099945,0.18243303894996643],"rotation":[0.20390264689922333,-6.570045783728818e-15,-1.0886861955016792e-14,0.9789912700653076],"children":[43]},{"name":"Tongue01_end_069","translation":[-1.0587911840678754e-22,0.18678462505340576,-5.551115123125783e-17]},{"name":"UpJaw_027","translation":[-8.07481193021431e-9,0.007547554560005665,0.417341947555542],"children":[45,47]},{"name":"LeftNose_028","translation":[0.02426443248987198,-0.014649576507508755,0.18464073538780212],"rotation":[0.30492615699768066,0.11889863759279251,0.10332127660512924,0.9392592310905457],"children":[46]},{"name":"LeftNose_end_070","translation":[0,0.1868036985397339,0]},{"name":"RightNose_029","translation":[-0.024264434352517128,-0.014649594202637672,0.18464073538780212],"rotation":[0.3049267828464508,-0.11890057474374771,-0.1033206507563591,0.9392589330673218],"children":[48]},{"name":"RightNose_end_071","translation":[0,0.1868036538362503,5.551115123125783e-17]},{"name":"RightBrow_inner_030","translation":[-0.03348999097943306,0.19302015006542206,0.41108015179634094],"rotation":[8.853028532485041e-8,-0.03925982862710953,-1.3066410176065801e-8,0.9992291331291199],"children":[50]},{"name":"RightBrow_inner_end_072","translation":[-6.938893903907228e-18,0.38883447647094727,-5.551115123125783e-17]},{"name":"RightBrow_mid_031","translation":[-0.13211998343467712,0.20586015284061432,0.39916080236434937],"rotation":[5.0189694178470745e-8,-0.13485093414783478,-6.830501053656235e-9,0.9908658862113953],"children":[52]},{"name":"RightBrow_mid_end_073","translation":[-1.3877787807814457e-17,0.3888345956802368,5.551115123125783e-17]},{"name":"RightBrow_outer_032","translation":[-0.2422999143600464,0.19774912297725677,0.34210506081581116],"rotation":[4.78927510982885e-8,-0.32556822896003723,-1.649079273136067e-8,0.9455185532569885],"children":[54]},{"name":"RightBrow_outer_end_074","translation":[0,0.3888345956802368,0]},{"name":"LeftBrow_mid_033","translation":[0.13212142884731293,0.20586024224758148,0.39916086196899414],"rotation":[5.0189694178470745e-8,0.13485093414783478,6.830519705403049e-9,0.9908658862113953],"children":[56]},{"name":"LeftBrow_mid_end_075","translation":[0,0.3888345956802368,-5.551115123125783e-17]},{"name":"LeftBrow_outer_034","translation":[0.2422999143600464,0.1977493017911911,0.34210506081581116],"rotation":[4.7892736887433784e-8,0.32556822896003723,1.6490812271285904e-8,0.9455185532569885],"children":[58]},{"name":"LeftBrow_outer_end_076","translation":[2.7755575615628914e-17,0.3888345956802368,5.551115123125783e-17]},{"name":"LeftBrow_inner_035","translation":[0.03348536044359207,0.19302375614643097,0.41107743978500366],"rotation":[8.928255113005434e-8,0.03925982117652893,-6.080123515772584e-9,0.9992291331291199],"children":[60]},{"name":"LeftBrow_inner_end_077","translation":[6.938893903907228e-18,0.38883447647094727,-5.551115123125783e-17]},{"name":"RighteyeAll_036","translation":[-0.12930040061473846,0.08610263466835022,0.2730433940887451],"children":[62,64,66]},{"name":"Righteye_037","children":[63]},{"name":"Righteye_end_078","translation":[-2.7755575615628914e-17,0.08175718784332275,0]},{"name":"RightUp_lid_038","translation":[-0.03856953978538513,0.07673623412847519,0.0883527472615242],"rotation":[-4.448521906397218e-8,-0.21643958985805511,9.862137773097857e-9,0.9762960076332092],"children":[65]},{"name":"RightUp_lid_end_079","translation":[2.7755575615628914e-17,0.08175718784332275,0]},{"name":"RightLow_lid_039","translation":[-0.03764954209327698,-0.058159083127975464,0.10048632323741913],"rotation":[-4.4485211958544824e-8,-0.2164396047592163,9.862140437633116e-9,0.9762960076332092],"children":[67]},{"name":"RightLow_lid_end_080","translation":[0,0.08175718784332275,0]},{"name":"LefteyeAll_040","translation":[0.12929995357990265,0.08610273152589798,0.2730400860309601],"children":[69,71,73]},{"name":"Lefteye_041","children":[70]},{"name":"Lefteye_end_081","translation":[2.7755575615628914e-17,0.0817575454711914,0]},{"name":"LeftUp_lid_042","translation":[0.038573697209358215,0.07673634588718414,0.0883527472615242],"rotation":[1.3345507454687322e-7,0.2164396047592163,2.9586285421601133e-8,0.9762960076332092],"children":[72]},{"name":"LeftUp_lid_end_082","translation":[2.7755575615628914e-17,0.0817575454711914,0]},{"name":"LeftLow_lid_043","translation":[0.037648722529411316,-0.058158859610557556,0.10048627108335495],"rotation":[8.897006154029441e-8,0.2164396047592163,1.972419205742426e-8,0.9762960076332092],"children":[74]},{"name":"LeftLow_lid_end_083","translation":[0,0.0817575454711914,-5.551115123125783e-17]},{"name":"LeftMouthUp_corner_044","translation":[0.2602924406528473,-0.03692513704299927,0.2417416274547577],"rotation":[3.122164216051715e-8,-0.13052621483802795,-4.110392914924432e-9,0.9914448857307434],"children":[76]},{"name":"LeftMouthUp_corner_end_084","translation":[0,0.3888343572616577,0]},{"name":"RightMouthUp_corner_045","translation":[-0.26028990745544434,-0.03692532703280449,0.2417416274547577],"rotation":[3.122163860780347e-8,0.13052621483802795,4.1104128989388755e-9,0.9914448857307434],"children":[78]},{"name":"RightMouthUp_corner_end_085","translation":[0,0.3888343572616577,0]},{"name":"LeftFin_046","translation":[0.3321067988872528,-0.06674015522003174,0.010470973327755928],"rotation":[-0.03869819641113281,0.4822762906551361,-0.10947830975055695,0.8682894110679626],"children":[80]},{"name":"LeftFin_end_086","translation":[0,0.3888344466686249,0]},{"name":"RightFin_047","translation":[-0.3321068584918976,-0.06674016267061234,0.01047095749527216],"rotation":[0.8682894706726074,0.10947837680578232,0.48227617144584656,0.03869810700416565],"children":[82]},{"name":"RightFin_end_087","translation":[0,0.3888344466686249,0]},{"name":"MidBrow_048","translation":[-5.889516430102049e-9,0.19005531072616577,0.40962448716163635],"children":[84]},{"name":"MidBrow_end_088","translation":[0,0.3888345956802368,-5.551115123125783e-17]},{"name":"flowerpot_root_049","translation":[-0.22450795769691467,-0.3861331641674042,0.00023126781161408871],"rotation":[-0.17986755073070526,-0.6838476061820984,-0.17986749112606049,0.6838477849960327],"children":[86]},{"name":"flowerpot_root_end_089","translation":[0,0.29426679015159607,0]},{"name":"RightLeg_leaf01_050","translation":[-0.15230022370815277,-0.08666222542524338,-0.08533332496881485],"rotation":[0.3513217866420746,0.7973008155822754,-0.04868201166391373,0.48837941884994507],"children":[88]},{"name":"RightLeg_leaf02_051","translation":[0.2221558690071106,2.60770320892334e-8,5.6984312379881885e-8],"rotation":[-7.948029434601267e-8,-5.558708338071483e-8,-0.23218737542629242,0.9726710915565491],"children":[89]},{"name":"RightLeg_leaf02_end_090","translation":[2.7755575615628914e-17,0.22215594351291656,0]},{"name":"LeftLeg_leaf01_052","translation":[-0.14831627905368805,-0.08974117785692215,0.06512420624494553],"rotation":[-0.3484782576560974,-0.7908481359481812,-0.04990328848361969,0.5006313920021057],"children":[91]},{"name":"LeftLeg_leaf02_053","translation":[0.2221558392047882,8.381903171539307e-8,5.200270436489518e-9],"rotation":[-7.772704435637934e-8,-6.839516064616191e-9,-0.23218736052513123,0.9726710915565491],"children":[92]},{"name":"LeftLeg_leaf02_end_091","translation":[2.7755575615628914e-17,0.22215592861175537,-1.3877787807814457e-17]},{"name":"BackLeg_leaf01_054","translation":[-0.033886805176734924,-0.17839300632476807,0.00023127614986151457],"rotation":[4.6531387631887355e-9,3.0949172113992063e-9,-0.09918925911188126,0.9950686097145081],"children":[94]},{"name":"BackLeg_leaf02_055","translation":[0.2221558541059494,1.4901161193847656e-8,1.1097007757143729e-8],"rotation":[1.0087696011851222e-8,-6.275858943638468e-9,-0.23218747973442078,0.9726711511611938],"children":[95]},{"name":"BackLeg_leaf02_end_092","translation":[2.7755575615628914e-17,0.22215594351291656,0]},{"name":"Wep_Root_056","translation":[-0.37734222412109375,-0.6565647721290588,0.00023126111773308367],"rotation":[-0.1810842901468277,-0.6835265159606934,-0.1810842752456665,0.6835265755653381],"children":[97,99]},{"name":"Wep_Mag_057","translation":[-2.2900422891325434e-8,0.016051532700657845,0.4447430968284607],"children":[98]},{"name":"Wep_Mag_end_093","translation":[-6.617444900424222e-24,0.27251631021499634,0]},{"name":"Wep_Aim_058","translation":[-8.045539345857833e-9,5.960905014035234e-8,0.1000000461935997],"children":[100]},{"name":"Wep_Aim_end_094","translation":[0,0.27251631021499634,0]},{"name":"Object_101","scale":[100,100.00000000000028,100.00000000000028]},{"name":"Object_102","mesh":0,"skin":0},{"name":"Object_103","scale":[100,100.00000000000028,100.00000000000028]},{"name":"Object_104","mesh":1,"skin":0},{"name":"Object_105","scale":[100,100.00000000000028,100.00000000000028]},{"name":"Object_106","mesh":2,"skin":0}],"skins":[{"inverseBindMatrices":20,"skeleton":5,"joints":[5,6,7,8,9,10,11,12,13,14,15,16,17,18,19,20,21,22,23,24,25,26,27,28,29,30,31,32,33,34,35,36,37,38,39,40,41,42,43,44,45,46,47,48,49,50,51,52,53,54,55,56,57,58,59,60,61,62,63,64,65,66,67,68,69,70,71,72,73,74,75,76,77,78,79,80,81,82,83,84,85,86,87,88,89,90,91,92,93,94,95,96,97,98,99,100]}],"scenes":[{"name":"Sketchfab_Scene","nodes":[0]}],"scene":0,"extensionsUsed":["KHR_materials_ior","KHR_materials_specular"]}